<svg xmlns="http://www.w3.org/2000/svg" viewBox="0 0 330.55 940.6" transform="matrix(-1, 0, 0, 1, 0, 0)"><g xmlns="http://www.w3.org/2000/svg" transform="matrix(0 -1 1 0 -340.2 973.27997)"><path fill-rule="evenodd" clip-rule="evenodd" d="M319.449,589.854" fill="#a8d4ad"/><g>	<path fill-rule="evenodd" clip-rule="evenodd" d="M431.988,538.594c3.357,2.044,5.747,3.362,7.939,4.85   c15.751,10.678,32.481,20.67,46.839,32.354c9.493,7.729,15.623,17.873,23.095,27.011c1.351,1.659,2.011,3.67,2.841,5.556   c1.665,3.796,2.102,7.62-1.767,10.786c-3.98,3.261-9.281,2.989-14.027,1.59c-9.515-2.811-19.129-5.615-28.08-9.302   c-30.608-12.592-54.006-31.4-73.727-52.722c-7.95-8.602-15.39-10.962-28.884-8.144c-16.059,3.359-33.024,4.21-49.595,6.168   c-2.331,0.277-4.629,0.666-7.993,1.156c1.479,1.866,2.479,3.236,3.613,4.534c24.377,27.902,37.782,58.91,44.528,91.772   c0.771,3.767,1.289,7.851-3.517,10.522c-5.199,2.891-10.941,1.806-15.272-0.745c-6.609-3.905-13.617-8.011-18.252-13.176   c-23.648-26.342-41.655-54.857-53.471-85.524c-1.677-4.351-4.223-5.623-9.999-5.641c-21.32-0.056-42.637-0.555-63.959-0.876   c-1.261-0.017-2.525,0.114-4.597,0.211c1.013,1.886,1.798,3.362,2.607,4.835c14.799,26.926,23.603,54.866,23.856,84.148   c0.042,5.057-0.897,10.43-3.311,15.078c-1.591,3.069-6.111,6.135-10.249,7.33c-5.236,1.519-9.432-1.743-12.234-5.093   c-9.778-11.711-14.107-24.972-17.739-38.302c-5.633-20.688-9.004-41.562-6.798-62.794c0.729-7.02,0.226-7.072-8.935-7.664   c-18.861-1.221-37.702-2.802-56.598-3.488c-12.88-0.461-25.72,1.008-37.523,5.419c-3.653,1.366-7.048,3.333-10.073,5.435   c-5.606,3.896-6.859,8.823-3.547,11.872c3.286,3.025,12.367,3.253,17.465,0.099c1.617-1.003,3.251-3.006,3.105-4.45   c-0.383-3.848,1.698-6.04,6.38-5.935c4.858,0.108,8.229,3.081,6.908,6.39c-1.621,4.055-4.489,8.346-8.47,11.205   c-5.712,4.098-13.596,5.142-21.477,4.293c-15.381-1.661-23.145-13.86-15.24-24.176c7.29-9.519,19.127-14.663,32.665-16.793   c11.861-1.865,24.148-2.173,36.257-3.085c2.56-0.195,5.167-0.03,8.798-0.03c-0.625-2.157-1.008-3.847-1.607-5.49   c-5.723-15.742-10.576-31.662-9.091-48.085c0.708-7.839,3.456-15.646,6.193-23.278c1.499-4.177,5.114-8.004,11.806-8.146   c6.726-0.142,9.82,3.698,12.398,7.671c6.689,10.302,7.37,21.551,7.365,32.616c-0.005,14.255-1.498,28.512-2.575,42.758   c-0.199,2.629,0.367,4.157,4.127,4.391c23.648,1.478,47.296,2.99,70.943,4.458c0.588,0.036,1.213-0.267,2.394-0.547   c-0.606-4.197-1.479-8.402-1.779-12.628c-2.485-34.81,13.494-64.758,41.81-91.384c3.419-3.216,7-6.419,11.095-9.111   c6.883-4.526,14.984-3.082,16.453,3.67c1.603,7.368,1.77,15.251,0.203,22.624c-5.026,23.638-12.54,46.866-24.678,69.052   c-3.315,6.058-7.684,11.779-11.976,18.268c9.78,0,19.063,0.426,28.258-0.089c17.802-1.006,35.541-2.647,53.331-3.804   c6.439-0.419,8.791-2.283,8.45-7.49c-2.346-35.937,8.269-69.243,35.946-98.861c4.038-4.323,8.227-8.633,13.037-12.437   c7.317-5.783,15.171-4.351,18.322,3.346c4.736,11.545,3.56,23.362,0.936,35.024c-5.667,25.215-15.261,49.446-32.72,71.553   c-0.527,0.669-0.771,1.469-1.591,3.066c4.875-0.784,8.887-1.241,12.75-2.089c24.27-5.328,48.509-10.737,72.753-16.14   c3.491-0.774,6.354-1.679,5.886-5.36c-3.3-25.795,3.979-50.139,17.635-73.606c7.136-12.259,16.396-23.422,28.549-33.147   c2.103-1.679,4.284-3.333,6.7-4.74c8.109-4.733,16.677-2.88,18.188,4.74c1.533,7.778,2.267,15.977,0.814,23.714   c-4.806,25.568-16.358,49.505-32.865,72.056c-0.729,1.002-1.436,2.017-2.911,4.088c3.513-1.006,5.886-1.524,8.067-2.335   c24.096-8.921,48.133-17.937,72.27-26.793c4.081-1.496,5.72-3.612,5.848-6.97c1.31-33.337,19.364-61.562,46.056-87.105   c3.911-3.743,7.834-8.406,15.337-6.688c7.716,1.765,7.321,7.584,7.392,12.162c0.245,16.634-4.523,32.644-12.357,48.09   c-3.122,6.156-7.236,12.023-11.153,18.435c1.533-0.385,2.885-0.616,4.12-1.042c20.221-7.012,40.468-13.978,60.582-21.164   c2.05-0.73,4.737-2.811,4.688-4.213c-0.963-26.039,9.584-49.716,25.096-72.377c3.112-4.548,6.843-8.884,10.748-13.07   c3.917-4.197,8.962-7.707,16.406-6.369c7.674,1.379,11.318,6.247,11.1,11.582c-0.372,9.039-1.293,18.212-3.825,27.021   c-4.454,15.495-12.276,30.109-24.127,43.317c-0.586,0.649-0.979,1.399-2.182,3.146c3.438-0.794,5.576-1.375,7.774-1.788   c19.636-3.707,39.25-7.478,58.949-10.981c3.714-0.661,5.316-1.626,6.189-4.615c6.183-21.241,18.763-40.251,35.662-57.671   c1.278-1.32,2.891-2.516,4.604-3.514c7.094-4.133,15.49-2.663,17.571,3.872c1.645,5.156,1.847,10.937,0.697,16.188   c-3.177,14.555-11.834,27.325-24.473,38.514c-0.702,0.624-1.367,1.277-2.018,1.934c-0.106,0.105-0.036,0.309-0.116,1.48   c12.558-2.916,25.511-0.746,37.414-7.68c22.722-13.237,49.015-19.964,78.159-18.569c2.592,0.125,5.204,0.446,7.732,0.908   c13.729,2.507,17.113,10.503,7.45,18.416c-11.836,9.695-27.374,13.75-44.029,15.965c-19.651,2.611-39.005,0.008-58.503-1.318   c-8.508-0.58-17.3,0.588-25.888,1.419c-18.561,1.792-37.079,3.88-57.471,6.046c2.948,1.553,4.326,2.417,5.858,3.074   c26.879,11.496,45.274,28.759,58.188,49.723c1.954,3.163,4.146,6.538,0.527,9.803c-3.805,3.426-8.685,2.283-13.329,1.249   c-14.187-3.159-26.304-9.25-36.191-17.271c-14.134-11.468-27.346-23.617-40.468-35.779c-3.3-3.053-5.826-4.269-10.829-2.786   c-20.907,6.197-41.916,12.186-62.872,18.285c-1.148,0.332-2.154,0.957-3.815,1.715c5.045,3.038,10.159,5.381,14.044,8.584   c16.086,13.274,31.98,26.683,47.514,40.333c3.613,3.179,6.002,7.34,8.109,11.306c4.071,7.637-1.474,13.18-11.946,11.055   c-10.403-2.112-20.891-5.126-30.07-9.347c-24.431-11.226-44.471-26.1-58.514-45.268c-2.001-2.738-3.692-4.794-8.477-2.794   c-25.792,10.771-51.67,21.427-77.506,32.146c-0.521,0.215-0.851,0.693-1.628,1.346c6.865,3.074,13.623,5.981,20.221,9.08   c11.123,5.222,21.668,11.79,31.095,19.528c5.827,4.782,13.438,9.616,16.698,16.546c4.294,9.121-3.333,14.036-12.448,12.539   c-7.428-1.217-14.941-2.466-22.019-4.505c-25.597-7.394-46.493-20.127-65.251-34.931c-5.002-3.946-8.796-4.538-15.606-2.463   c-24.261,7.4-48.909,14.067-73.403,21.014C437.596,536.955,435.457,537.588,431.988,538.594z M350.189,542.831   c22.296-9.719,52.937-87.295,42.379-106.399C365.024,453.776,340.375,515.22,350.189,542.831z M397.591,545.581   c27.074,29.33,57.375,54.286,103.978,66.663c-6.226-12.3-14.569-21.959-24.275-30.908c-16.549-15.248-37.925-26.282-58.401-38.074   c-1.239-0.718-3.326-1.204-4.789-0.969C408.85,543.132,403.699,544.328,397.591,545.581z M521.204,414.964   c-26.021,8.877-60.545,86.161-45.113,100.986C498.526,500.406,529.666,434.813,521.204,414.964z M342.728,655.806   c0.532-0.296,1.064-0.59,1.596-0.886c-0.851-3.523-1.702-7.048-2.543-10.574c-6.843-28.646-20.354-55.244-42.267-79.194   c-6.806-7.442-10.193-7.969-21.75-4.55c0.127,0.733,0.122,1.562,0.42,2.319c12.17,30.956,30.488,59.656,54.903,86.059   C335.56,651.652,339.482,653.549,342.728,655.806z M271.776,446.42c-31.968,19.461-58.125,83.785-41.711,102.566   C248.259,536.416,277.334,464.912,271.776,446.42z M597.992,471.119c29.612-20.631,40.318-47.16,41.484-76.654   C615.733,416.882,598.795,441.444,597.992,471.119z M733.102,512.854c1.104-0.666,1.029-2.134-1.418-4.868   c-14.457-16.148-31.523-30.512-51.334-42.924c-3.997-2.507-8.52-4.746-13.271-6.233c-2.527-0.795-6.071,0.284-9.153,0.516   c0.49,1.938,0.352,4.147,1.57,5.77c12.355,16.493,29.638,29.46,50.572,39.556c4.774,2.301,9.084,5.514,14.116,7.317   C727.123,513.042,731.444,513.854,733.102,512.854z M177.452,565.345c-6.638,23.816,9.544,87.86,23.09,94.697   C204.879,626.303,193.699,595.513,177.452,565.345z M748.569,350.134c-17.991,11.013-41.974,62.957-35.924,77.535   C731.988,418.273,756.434,366.075,748.569,350.134z M533.897,507.446c17.772,18.673,63.303,40.211,82.246,39.521   c-17.928-18.827-40.618-32.503-68.863-40.548C543.916,505.463,539.346,506.959,533.897,507.446z M960.953,394.331   c-19.316-6.561-62.329,2.843-77.883,14.372C911.072,410.734,937.885,410.787,960.953,394.331z M830.884,476.777   c-13.026-21.497-33.801-36.773-62.419-45.776C785.808,449.003,803.379,466.825,830.884,476.777z M121.252,469.801   c-11.696,14.1-4.914,51.417,4.497,67.609C130.338,502.41,128.917,479.498,121.252,469.801z M851.414,356.171   c-11.67,8.8-31.8,40.143-32.13,49.632C835.902,399.992,854.799,371.23,851.414,356.171z" fill="#a8d4ad"/></g></g></svg>